<svg fill="none" height="48" viewBox="0 0 48 48" width="48" xmlns="http://www.w3.org/2000/svg"><path d="m18.2138 4.45332c-1.799.21351-3.1213 1.50989-3.3801 3.30287-.3883 2.69041-.8337 7.64931-.8337 16.24381 0 7.7675.2021 12.5654.4003 15.4029.1569 2.2474 1.7588 3.9689 4.0003 4.1947 2.0961.2111 5.2072.4024 9.5994.4024s7.5033-.1913 9.5994-.4024c2.2415-.2258 3.8434-1.9473 4.0004-4.1947.1981-2.8375.4002-7.6354.4002-15.4029s-.2021-12.5654-.4002-15.40293c-.157-2.24734-1.7589-3.96886-4.0004-4.19463-2.0961-.21113-5.2072-.40244-9.5994-.40244-4.7431 0-7.8464.22309-9.7862.45332z" fill="#a6cfff"/><path d="m25.8963 33.3948c-1.5092 1.2701-3.3735.4385-3.4835-1.5381-.0609-1.0945-.1141-2.4749-.146-4.2047-8.5544-.0865-15.21559-.2878-18.33281-.3961-1.0851-.0377-1.93399-.9343-1.93399-2.0269v-2.2444c0-1.0762.82418-1.9647 1.89222-2.0205 3.09918-.1619 9.78158-.4659 18.37418-.5963.0318-1.7388.0852-3.1255.1463-4.2241.11-1.977 1.9749-2.8087 3.4844-1.5383.8995.757 2.0084 1.7393 3.3435 3.0025 2.238 2.1175 3.5227 3.709 4.2488 4.7743.6809.9988.6808 2.2359-.0001 3.2347-.7262 1.0652-2.0109 2.6566-4.2487 4.7743-1.3355 1.2638-2.4447 2.2465-3.3443 3.0036z" fill="#1575e5"/></svg>